<svg width="64" height="67" viewBox="0 0 64 67" fill="none" xmlns="http://www.w3.org/2000/svg">
<path fill-rule="evenodd" clip-rule="evenodd" d="M51.9523 22.3155L39.5908 45.149C39.0822 46.0843 37.9205 46.4274 36.9977 45.9161C36.073 45.4122 35.7287 44.2429 36.2372 43.3076L48.5979 20.4693C49.1064 19.5387 50.2681 19.1956 51.1919 19.7023C52.1156 20.2099 52.4562 21.3802 51.9523 22.3155ZM25.5263 46.5073C18.3901 46.5073 16.4259 41.7848 15.922 39.4254C15.7074 38.4957 15.7028 37.8415 15.7028 37.5275C15.7028 36.4136 16.5985 35.5112 17.6996 35.5112C18.7306 35.5112 19.5695 36.2961 19.6824 37.2972C19.6824 37.3066 19.6908 37.3113 19.6908 37.3198C19.7011 37.3809 19.7095 37.4899 19.7197 37.6347C19.7328 37.7475 19.7514 37.8612 19.7514 37.9825C19.7514 38.0624 19.757 38.1423 19.7608 38.2278C19.7804 38.3914 19.799 38.57 19.8307 38.7533C19.9054 39.1443 20.036 39.5805 20.2553 40.0223C20.2833 40.0646 20.302 40.1078 20.3253 40.1492C21.0018 41.4172 22.3921 42.6627 25.0794 42.8047C29.1234 42.9212 30.3168 41.5582 30.3317 39.8662C30.1778 37.9082 30.0611 36.4973 25.391 34.5759C19.9287 32.3293 16.4446 30.971 16.4446 26.2682C16.4446 21.5682 20.7778 19.6271 24.7472 19.6271C25.7465 19.6271 26.6134 19.7455 27.3878 19.9335C28.9368 20.2428 30.6527 20.8829 31.9357 22.1519V22.1416C32.2623 22.433 32.6075 22.8616 32.9108 23.3767C32.9434 23.4303 32.9761 23.4811 33.0041 23.5328C33.0834 23.6738 33.1581 23.8242 33.2327 23.9793C33.256 24.031 33.2794 24.078 33.3027 24.1297C33.6946 25.0029 33.9745 26.0369 33.9745 27.0944C33.9745 27.2824 33.9978 27.5973 33.9325 27.9498C33.9278 27.9818 33.9185 28.0109 33.9139 28.0438C33.8952 28.1237 33.8672 28.2036 33.8345 28.2882C33.8205 28.3258 33.8112 28.3587 33.7925 28.3916C33.7832 28.4198 33.7692 28.448 33.7506 28.4819C33.4193 29.138 32.7522 29.5948 31.9684 29.5948C31.2779 29.5948 30.6816 29.2423 30.3215 28.7112C30.2944 28.6633 30.2664 28.6172 30.2422 28.5693C30.1862 28.4772 30.1404 28.3728 30.1022 28.2685C30.0985 28.2563 30.0891 28.2422 30.0891 28.2281C30.0705 28.1764 30.0518 28.119 30.0425 28.0683C29.9482 27.7487 29.9072 27.4056 29.9072 27.1189C29.9072 27.0568 29.9025 27.0004 29.8978 26.9393C29.8978 26.8444 29.8922 26.7607 29.8838 26.6724C29.8232 26.1732 29.6776 25.7794 29.5013 25.4598C29.4826 25.4269 29.464 25.394 29.4453 25.3611C29.408 25.3047 29.3753 25.253 29.338 25.1956C28.3396 23.749 26.2075 23.0148 24.6502 23.0148C22.5507 23.0148 20.2973 24.1767 20.2973 26.3105C20.2973 28.4386 22.3174 29.717 25.7409 30.8544C32.4302 33.3219 33.8112 35.3185 34.4131 37.7531C35.0755 40.4171 33.9278 46.5073 25.5263 46.5073ZM62.8256 24.2096C59.1222 7.471 42.3938 -3.02316 25.4713 0.778195C8.54318 4.58613 -2.17241 21.2392 1.53569 37.9787C2.75803 43.5097 5.40334 48.3591 9.01346 52.2357C10.8656 54.2332 6.73673 65.2472 9.03212 66.6854C10.9216 67.8698 19.1776 59.5714 21.2864 60.3328C26.73 62.2927 32.7988 62.7759 38.8909 61.4091C55.8144 57.6059 66.5337 40.9529 62.8256 24.2096Z" fill="#10CBB4"/>
</svg>

